<svg xmlns="http://www.w3.org/2000/svg" width="140" height="140" viewBox="0 0 140 140" fill="none">
  <defs>
    <clipPath id="bucket">
      <polygon points="35,55 105,55 92,120 48,120" />
    </clipPath>
    <linearGradient id="bucketBase" x1="0" x2="0" y1="55" y2="120" gradientUnits="userSpaceOnUse">
      <stop offset="0" stop-color="#ff3b6a" />
      <stop offset="1" stop-color="#e5164f" />
    </linearGradient>
  </defs>
  <g fill="#f2d6a2" stroke="#eac58a" stroke-width="2">
    <circle cx="45" cy="42" r="12" />
    <circle cx="60" cy="34" r="13" />
    <circle cx="76" cy="36" r="14" />
    <circle cx="92" cy="44" r="12" />
    <circle cx="58" cy="50" r="12" />
    <circle cx="74" cy="50" r="12" />
  </g>
  <polygon points="35,55 105,55 92,120 48,120" fill="#fff3f7" stroke="#f2c7d5" stroke-width="2" />
  <g clip-path="url(#bucket)">
    <rect x="38" y="55" width="12" height="70" fill="url(#bucketBase)" />
    <rect x="56" y="55" width="12" height="70" fill="url(#bucketBase)" />
    <rect x="74" y="55" width="12" height="70" fill="url(#bucketBase)" />
    <rect x="92" y="55" width="12" height="70" fill="url(#bucketBase)" />
  </g>
  <rect x="32" y="52" width="76" height="8" rx="4" fill="#ffd5e2" stroke="#f2c7d5" stroke-width="2" />
</svg>
