<svg xmlns="http://www.w3.org/2000/svg" width="180" height="180" viewBox="0 0 180 180" fill="none">
  <defs>
    <linearGradient id="board" x1="0" y1="0" x2="0" y2="1">
      <stop offset="0" stop-color="#2b2f33" />
      <stop offset="1" stop-color="#14171a" />
    </linearGradient>
    <linearGradient id="bar" x1="0" y1="0" x2="1" y2="1">
      <stop offset="0" stop-color="#f6f6f6" />
      <stop offset="1" stop-color="#d9d9d9" />
    </linearGradient>
  </defs>

  <g transform="translate(18 20)">
    <rect x="0" y="30" width="144" height="106" rx="10" fill="url(#board)" stroke="#e6e6e6" stroke-width="4" />

    <g transform="rotate(-12 14 24)">
      <rect x="-4" y="4" width="148" height="26" rx="8" fill="#f3f3f3" stroke="#e6e6e6" stroke-width="4" />
      <g clip-path="url(#clipBar)">
        <rect x="2" y="6" width="30" height="22" fill="#14171a" />
        <rect x="32" y="6" width="30" height="22" fill="#f3f3f3" />
        <rect x="62" y="6" width="30" height="22" fill="#14171a" />
        <rect x="92" y="6" width="30" height="22" fill="#f3f3f3" />
        <rect x="122" y="6" width="22" height="22" fill="#14171a" />
      </g>
    </g>

    <rect x="0" y="30" width="144" height="28" rx="10" fill="#f3f3f3" stroke="#e6e6e6" stroke-width="4" />
    <g>
      <rect x="6" y="34" width="30" height="20" fill="#14171a" />
      <rect x="36" y="34" width="30" height="20" fill="#f3f3f3" />
      <rect x="66" y="34" width="30" height="20" fill="#14171a" />
      <rect x="96" y="34" width="30" height="20" fill="#f3f3f3" />
      <rect x="126" y="34" width="12" height="20" fill="#14171a" />
    </g>

    <circle cx="16" cy="44" r="4" fill="#14171a" opacity="0.6" />
    <circle cx="30" cy="44" r="4" fill="#14171a" opacity="0.6" />

    <rect x="16" y="84" width="112" height="4" rx="2" fill="#f3f3f3" />
    <rect x="16" y="118" width="112" height="4" rx="2" fill="#f3f3f3" />
    <rect x="52" y="122" width="4" height="12" rx="2" fill="#f3f3f3" />
    <rect x="96" y="122" width="4" height="12" rx="2" fill="#f3f3f3" />
  </g>

  <defs>
    <clipPath id="clipBar">
      <rect x="0" y="4" width="144" height="26" rx="8" />
    </clipPath>
  </defs>
</svg>
